<svg xmlns="http://www.w3.org/2000/svg" xml:space="preserve" x="0px" y="0px" viewBox="0 0 512 512"><path d="M512 255.904c0 70.692-28.654 134.692-74.981 181.019S326.692 511.904 256 511.904s-134.692-28.654-181.019-74.98S0 326.597 0 255.904 28.654 121.212 74.981 74.885 185.308-.096 256-.096s134.692 28.654 181.019 74.981S512 185.212 512 255.904" style="fill:#29a4fc"/><path d="m440.691 340.856-30.012-3.063-30.013-3.064 3.467-33.961 3.466-33.961 30.012 3.063 30.013 3.064-3.467 33.961z" style="fill:#fff"/><path d="M363.74 488.184a245 245 0 0 1-20.649 8.51 253.5 253.5 0 0 1-42.27 11.299 257.5 257.5 0 0 1-44.82 3.911c-15.845 0-31.353-1.44-46.4-4.196s-29.635-6.829-43.64-12.094c-6.695-2.515-13.255-5.302-19.668-8.349s-12.678-6.351-18.782-9.901l.245-49.1.245-49.1c0-25.69 7.443-48.948 19.475-65.783s28.655-27.247 47.015-27.247h102.22c18.36 0 34.982 10.413 47.015 27.247 12.033 16.835 19.475 40.093 19.475 65.783l.045 9.415.045 9.415.225 45.095z" style="fill:#088e5d"/><path d="M363.74 488.184a245 245 0 0 1-20.649 8.51 253.5 253.5 0 0 1-42.27 11.299 257.5 257.5 0 0 1-44.82 3.911c-15.845 0-31.353-1.44-46.4-4.196s-29.635-6.829-43.64-12.094v-116.45c0-21.945 5.432-42.117 14.519-58.026s21.826-27.554 36.441-32.444c2.17-.73 4.383-1.31 6.631-1.731a48 48 0 0 1 6.849-.779q.517-.03 1.03-.04c.513-.01.685-.01 1.03-.01h64.25c18.36 0 34.982 10.413 47.015 27.247 12.033 16.835 19.475 40.093 19.475 65.783l.045 9.415.045 9.415.225 45.095z" style="fill:#0fa46e"/><path d="M280.021 261.228v44.926c0 3.605-1.461 6.869-3.824 9.232s-5.626 3.824-9.232 3.824h-36.994c-3.605 0-6.869-1.461-9.232-3.824s-3.824-5.626-3.824-9.232v-44.926z" style="fill:#e09d6e"/><path d="M280.021 261.228v46.508c0 3.168-1.284 6.037-3.361 8.113s-4.945 3.361-8.113 3.361h-38.144v-57.982zm-160.506-100.47c0 6.475 2.625 12.338 6.868 16.581s10.106 6.868 16.581 6.868 12.338-2.625 16.581-6.868 6.868-10.106 6.868-16.581a23.38 23.38 0 0 0-6.868-16.581c-4.243-4.243-10.106-6.868-16.581-6.868s-12.338 2.625-16.581 6.868a23.38 23.38 0 0 0-6.868 16.581" style="fill:#fbb47a"/><path d="M133.584 160.758c0 2.59 1.05 4.935 2.747 6.632s4.042 2.747 6.632 2.747 4.935-1.05 6.632-2.747 2.747-4.042 2.747-6.632-1.05-4.935-2.747-6.632-4.042-2.747-6.632-2.747-4.935 1.05-6.632 2.747-2.747 4.042-2.747 6.632" style="fill:#d29169"/><path d="M328.768 160.758c0 6.475 2.625 12.338 6.868 16.581s10.106 6.868 16.581 6.868 12.338-2.625 16.581-6.868 6.868-10.106 6.868-16.581a23.38 23.38 0 0 0-6.868-16.581c-4.243-4.243-10.106-6.868-16.581-6.868s-12.338 2.625-16.581 6.868a23.38 23.38 0 0 0-6.868 16.581" style="fill:#fbb47a"/><path d="M342.838 160.758c0 2.59 1.05 4.935 2.747 6.632s4.042 2.747 6.632 2.747 4.935-1.05 6.632-2.747 2.747-4.042 2.747-6.632-1.05-4.935-2.747-6.632-4.042-2.747-6.632-2.747-4.935 1.05-6.632 2.747-2.747 4.042-2.747 6.632" style="fill:#e09d6e"/><path d="M311.19 39.406c11.328 0 21.583 4.591 29.006 12.015s12.015 17.679 12.015 29.006v106.836q0 2.111-.097 4.198a83 83 0 0 1-.298 4.151c-2.103 22.295-12.535 42.158-28.149 56.448s-36.411 23.006-59.243 23.006H230.76c-22.84 0-43.637-8.716-59.249-23.006s-26.04-34.154-28.143-56.448a83 83 0 0 1-.298-4.151 90 90 0 0 1-.097-4.198V80.428c0-11.328 4.591-21.583 12.015-29.006s17.679-12.015 29.006-12.015z" style="fill:#e09d6e"/><path d="M311.194 39.409c11.328 0 21.583 4.591 29.007 12.015 7.423 7.423 12.015 17.679 12.015 29.006v106.832c0 24.252-9.827 46.205-25.714 62.095-15.888 15.89-37.836 25.716-62.08 25.716h-10.2c-24.248 0-46.201-9.829-62.092-25.719s-25.719-37.844-25.719-62.092V80.43c0-11.328 4.591-21.583 12.015-29.006s17.679-12.015 29.006-12.015z" style="fill:#fbb47a"/><path d="M258.183 192.559h-19.426a8.32 8.32 0 0 1-5.905-2.446 8.32 8.32 0 0 1-2.446-5.905c0-2.306.935-4.394 2.446-5.905a8.32 8.32 0 0 1 5.905-2.446h19.426c2.306 0 4.394.935 5.905 2.446a8.32 8.32 0 0 1 2.446 5.905 8.32 8.32 0 0 1-2.446 5.905 8.32 8.32 0 0 1-5.905 2.446" style="fill:#e29f6e"/><path d="M196.406 184.208h-1.394c-3.288 0-6.265-1.333-8.42-3.487s-3.487-5.131-3.487-8.42v-16.93c0-3.288 1.333-6.265 3.487-8.42s5.131-3.487 8.42-3.487h1.394c3.288 0 6.265 1.333 8.42 3.487s3.487 5.131 3.487 8.42v16.93c0 3.288-1.333 6.265-3.487 8.42s-5.132 3.487-8.42 3.487" style="fill:#1f3d5c"/><path d="M194.244 155.482c0 1.619.656 3.084 1.717 4.145s2.526 1.717 4.145 1.717 3.084-.656 4.145-1.717 1.717-2.526 1.717-4.145-.656-3.084-1.717-4.145-2.526-1.717-4.145-1.717-3.084.656-4.145 1.717a5.84 5.84 0 0 0-1.717 4.145" style="fill:#fff"/><path d="M318.258 154.768s1.976-.354 4.253-1.581 4.857-3.328 6.065-6.822m-143.073 8.403s-1.976-.354-4.253-1.581-4.857-3.328-6.065-6.822" style="fill:none;stroke:#1f3d5c;stroke-width:8;stroke-linecap:round;stroke-miterlimit:10"/><path d="M307.497 184.208h-1.394a11.87 11.87 0 0 1-8.42-3.487 11.87 11.87 0 0 1-3.487-8.42v-16.93c0-3.288 1.333-6.265 3.487-8.42a11.87 11.87 0 0 1 8.42-3.487h1.394a11.87 11.87 0 0 1 8.419 3.487 11.87 11.87 0 0 1 3.487 8.42v16.93c0 3.288-1.333 6.265-3.487 8.42a11.87 11.87 0 0 1-8.419 3.487" style="fill:#1f3d5c"/><path d="M305.334 155.482c0 1.619.656 3.084 1.717 4.145a5.84 5.84 0 0 0 4.145 1.717 5.84 5.84 0 0 0 4.145-1.717c1.061-1.061 1.717-2.526 1.717-4.145s-.656-3.084-1.717-4.145a5.84 5.84 0 0 0-4.145-1.717 5.84 5.84 0 0 0-4.145 1.717 5.84 5.84 0 0 0-1.717 4.145" style="fill:#fff"/><path d="M352.212 83.005v13.086H142.957V83.005c0-16.982 6.883-32.357 18.012-43.485s26.503-18.012 43.485-18.012h86.258c16.982 0 32.357 6.883 43.485 18.012s18.015 26.503 18.015 43.485" style="fill:#088e5d"/><path d="M352.212 96.092v36.367H142.957V96.092h104.627z" style="fill:#d5d3d2"/><path d="M352.212 83.005v13.086H166.406V83.005c0-16.982 6.883-32.357 18.012-43.485s26.503-18.012 43.485-18.012h62.81c16.982 0 32.357 6.883 43.485 18.012s18.014 26.503 18.014 43.485" style="fill:#0fa46e"/><path d="M352.212 96.092v36.367H166.406V96.092h92.903z" style="fill:#fff"/><path d="M351.816 195.612c-2.103 22.295-12.535 42.158-28.149 56.448s-36.411 23.006-59.243 23.006H230.76c-22.84 0-43.637-8.716-59.249-23.006s-26.04-34.154-28.143-56.448z" style="fill:#0fa46e"/><path d="M351.816 195.612c-2.103 22.295-12.535 42.158-28.149 56.448s-36.411 23.006-59.243 23.006h-10.626c-22.84 0-43.637-8.716-59.249-23.006s-26.04-34.154-28.143-56.448z" style="fill:#0fbf79"/><path d="M206.625 113.56c0 11.555 4.684 22.016 12.256 29.589s18.034 12.256 29.589 12.256 22.016-4.684 29.589-12.256 12.256-18.034 12.256-29.589-4.684-22.016-12.256-29.589c-7.572-7.572-18.034-12.256-29.589-12.256s-22.016 4.684-29.589 12.256c-7.572 7.573-12.256 18.034-12.256 29.589" style="fill:#d5d3d2"/><path d="M280.029 113.56c0 7.14-2.374 13.729-6.376 19.018a31.56 31.56 0 0 1-16.149 11.214q-2.145.652-4.407.987t-4.622.336c-8.717 0-16.606-3.533-22.315-9.244s-9.24-13.6-9.24-22.311 3.53-16.6 9.24-22.311c5.709-5.711 13.598-9.244 22.315-9.244q2.36.002 4.622.336t4.407.987a31.56 31.56 0 0 1 16.149 11.214 31.4 31.4 0 0 1 6.376 19.018" style="fill:#e0bd50"/><path d="M280.029 113.56c0 7.14-2.374 13.729-6.376 19.018a31.56 31.56 0 0 1-16.149 11.214 31.56 31.56 0 0 1-16.149-11.214 31.4 31.4 0 0 1-6.376-19.018c0-7.14 2.374-13.729 6.376-19.018a31.56 31.56 0 0 1 16.149-11.214 31.56 31.56 0 0 1 16.149 11.214 31.4 31.4 0 0 1 6.376 19.018" style="fill:#fcdb59"/><path d="M248.106 427.944h-1.026a8.74 8.74 0 0 1-6.201-2.569 8.74 8.74 0 0 1-2.569-6.201V319.21h18.566v99.964a8.74 8.74 0 0 1-2.569 6.201 8.74 8.74 0 0 1-6.201 2.569" style="fill:#088e5d"/><path d="m440.78 341.784-11.52 56.28-11.52 56.28a256 256 0 0 1-25.867 18.563 255 255 0 0 1-28.133 15.278 245 245 0 0 1-20.649 8.51l10.1-49.35 10.1-49.35 7.08-34.585 7.08-34.585 1.87.385 1.87.385 7.86 1.605 7.86 1.605 4.095.84 4.095.84 13.355 2.73 13.355 2.73.005.005.005.005 4.48.915z" style="fill:#0fa46e"/><path d="m443.077 342.254-33.962-6.951-33.962-6.951a5.08 5.08 0 0 1-3.231-2.185 5.08 5.08 0 0 1-.74-3.83l.299-1.462.299-1.462a5.08 5.08 0 0 1 2.185-3.231 5.08 5.08 0 0 1 3.83-.74l33.962 6.951 33.962 6.951a5.08 5.08 0 0 1 3.231 2.185 5.08 5.08 0 0 1 .74 3.83l-.299 1.462-.299 1.462a5.08 5.08 0 0 1-2.185 3.231 5.08 5.08 0 0 1-3.83.74" style="fill:#088e5d"/><path d="m424.845 145.65 2.716-26.501 2.716-26.501" style="fill:none;stroke:#f6faff;stroke-width:8;stroke-linecap:round;stroke-miterlimit:10"/><path d="m439.052 155.86-4.21 41.078-4.21 41.078-15.095-1.547-15.095-1.547 4.21-41.078 4.21-41.078a5.15 5.15 0 0 1 1.883-3.486 5.17 5.17 0 0 1 3.805-1.134l9.935 1.018 9.935 1.018c1.427.146 2.658.855 3.495 1.883s1.283 2.374 1.137 3.795" style="fill:#96b4d4"/><path d="m407.813 235.678 11.41 1.169 11.409 1.169 2.237-21.829 2.237-21.829-11.409-1.169-11.409-1.169-2.238 21.829z" style="fill:#a3c2ec"/><path d="m421.921 148.901-3.686-.378-3.686-.378a5.18 5.18 0 0 0-5.688 4.62l-1.973 19.249-1.973 19.249 3.686.378 3.686.378 1.973-19.249 1.973-19.249a5.16 5.16 0 0 1 1.887-3.486 5.18 5.18 0 0 1 3.801-1.134" style="fill:#cc3a4c"/><path d="m434.42 150.182-6.25-.641-6.25-.641a5.18 5.18 0 0 0-3.801 1.135 5.16 5.16 0 0 0-1.887 3.486l-1.973 19.249-1.973 19.249 11.409 1.169 11.409 1.169 1.973-19.249 1.973-19.249c.146-1.422-.299-2.768-1.137-3.796s-2.066-1.735-3.493-1.881" style="fill:#fb4755"/><path d="m431.858 149.916-7.373-.756-7.373-.756.197-1.924.197-1.924a3.18 3.18 0 0 1 1.159-2.148 3.18 3.18 0 0 1 2.338-.699l4.201.431 4.201.431c.876.09 1.633.526 2.148 1.159s.789 1.462.699 2.338l-.197 1.924zm2.398 52.74-15.095-1.547-15.095-1.547.425-4.146.425-4.146 15.095 1.547 15.095 1.547-.425 4.146z" style="fill:#5ea1e0"/><path d="m418.523 243.67-4.146-.425-4.146-.425 2.161-21.092 2.162-21.091 4.146.425 4.147.425-2.162 21.091z" style="fill:#96b4d4"/><path d="m430.096 244.856-15.258-1.564-15.258-1.564a3.94 3.94 0 0 1-2.666-1.439 3.95 3.95 0 0 1-.868-2.903l.024-.23.024-.23c.111-1.087.653-2.027 1.439-2.666s1.815-.979 2.903-.868l15.258 1.564 15.258 1.564c1.087.111 2.027.653 2.666 1.439s.979 1.815.868 2.903l-.024.23-.024.23a3.94 3.94 0 0 1-1.439 2.666 3.95 3.95 0 0 1-2.903.868" style="fill:#1f3d5c"/><path d="m404.658 337.885-4.133-.539-4.133-.539 2.425-18.589 2.425-18.589 4.133.539 4.133.539-2.425 18.589z" style="fill:#96b4d4"/><path d="m415.109 347.7-15.209-1.984-15.209-1.984a3.94 3.94 0 0 1-2.625-1.512 3.95 3.95 0 0 1-.788-2.925l.03-.23.03-.23a3.94 3.94 0 0 1 1.512-2.625 3.95 3.95 0 0 1 2.925-.788l15.209 1.984 15.209 1.984a3.94 3.94 0 0 1 2.625 1.512c.618.803.929 1.842.788 2.925l-.03.23-.03.23a3.94 3.94 0 0 1-1.512 2.625 3.95 3.95 0 0 1-2.925.788" style="fill:#1f3d5c"/><path d="m436.527 307.289-21.886-2.243-21.886-2.243c-6.265-.642-11.677-3.763-15.362-8.289s-5.643-10.459-5.001-16.724l.838-8.173.838-8.173a22.74 22.74 0 0 1 8.289-15.362 22.74 22.74 0 0 1 16.724-5.001l21.886 2.243 21.886 2.243c2.632.27 4.905 1.58 6.452 3.482s2.37 4.393 2.101 7.024l-2.186 21.331-2.186 21.331a9.55 9.55 0 0 1-3.482 6.452 9.55 9.55 0 0 1-7.025 2.102" style="fill:#fff"/></svg>