<?xml version="1.0" encoding="iso-8859-1"?>
<!-- Generator: Adobe Illustrator 22.0.1, SVG Export Plug-In . SVG Version: 6.00 Build 0)  -->
<svg version="1.1" id="Icons" xmlns="http://www.w3.org/2000/svg" xmlns:xlink="http://www.w3.org/1999/xlink" x="0px" y="0px"
	 viewBox="0 0 512 512" style="enable-background:new 0 0 512 512;" xml:space="preserve">
<g>
	<path id="XMLID_1188_" style="fill:#29A4FC;" d="M512,255.904c0,70.692-28.654,134.692-74.981,181.019S326.692,511.904,256,511.904
		S121.308,483.25,74.981,436.924S0,326.597,0,255.904S28.654,121.212,74.981,74.885S185.308-0.096,256-0.096
		s134.692,28.654,181.019,74.981S512,185.212,512,255.904z"/>
	<g id="XMLID_334_">
		<polygon id="XMLID_530_" style="fill:#FFFFFF;" points="440.691,340.856 410.679,337.793 380.666,334.729 384.133,300.768 
			387.599,266.807 417.611,269.87 447.624,272.934 444.157,306.895 		"/>
		<path id="XMLID_502_" style="fill:#088E5D;" d="M363.74,488.184c-3.365,1.57-6.77,3.065-10.212,4.484
			c-3.442,1.419-6.922,2.761-10.437,4.026c-13.59,4.925-27.718,8.727-42.27,11.299c-14.553,2.571-29.53,3.911-44.82,3.911
			c-15.845,0-31.353-1.44-46.4-4.196s-29.635-6.829-43.64-12.094c-6.695-2.515-13.255-5.302-19.668-8.349
			s-12.678-6.351-18.782-9.901l0.245-49.1l0.245-49.1c0-25.69,7.443-48.948,19.475-65.783
			c12.033-16.835,28.655-27.247,47.015-27.247h51.11h51.11c18.36,0,34.982,10.413,47.015,27.247
			c12.033,16.835,19.475,40.093,19.475,65.783l0.045,9.415l0.045,9.415l0.225,45.095L363.74,488.184z"/>
		<path id="XMLID_501_" style="fill:#0FA46E;" d="M363.74,488.184c-3.365,1.57-6.77,3.065-10.212,4.484
			c-3.442,1.419-6.922,2.761-10.437,4.026c-13.59,4.925-27.718,8.727-42.27,11.299c-14.553,2.571-29.53,3.911-44.82,3.911
			c-15.845,0-31.353-1.44-46.4-4.196s-29.635-6.829-43.64-12.094v-58.225v-58.225c0-21.945,5.432-42.117,14.519-58.026
			c9.086-15.909,21.826-27.554,36.441-32.444c2.17-0.73,4.383-1.31,6.631-1.731c2.249-0.421,4.534-0.684,6.849-0.779
			c0.345-0.02,0.688-0.033,1.03-0.04s0.685-0.01,1.03-0.01h32.125h32.125c18.36,0,34.982,10.413,47.015,27.247
			c12.033,16.835,19.475,40.093,19.475,65.783l0.045,9.415l0.045,9.415l0.225,45.095L363.74,488.184z"/>
		<path id="XMLID_500_" style="fill:#E09D6E;" d="M280.021,261.228v22.463v22.463c0,3.605-1.461,6.869-3.824,9.232
			s-5.626,3.824-9.232,3.824h-18.497h-18.497c-3.605,0-6.869-1.461-9.232-3.824s-3.824-5.626-3.824-9.232v-22.463v-22.463h31.553
			H280.021z"/>
		<path id="XMLID_498_" style="fill:#FBB47A;" d="M280.021,261.228v23.254v23.254c0,3.168-1.284,6.037-3.361,8.113
			s-4.945,3.361-8.113,3.361h-19.072h-19.072v-28.991v-28.991h24.809H280.021z"/>
		<path id="XMLID_497_" style="fill:#FBB47A;" d="M119.515,160.758c0,6.475,2.625,12.338,6.868,16.581s10.106,6.868,16.581,6.868
			s12.338-2.625,16.581-6.868s6.868-10.106,6.868-16.581c0-6.475-2.625-12.338-6.868-16.581c-4.243-4.243-10.106-6.868-16.581-6.868
			s-12.338,2.625-16.581,6.868C122.139,148.421,119.515,154.283,119.515,160.758z"/>
		<path id="XMLID_496_" style="fill:#D29169;" d="M133.584,160.758c0,2.59,1.05,4.935,2.747,6.632s4.042,2.747,6.632,2.747
			c2.59,0,4.935-1.05,6.632-2.747s2.747-4.042,2.747-6.632c0-2.59-1.05-4.935-2.747-6.632s-4.042-2.747-6.632-2.747
			c-2.59,0-4.935,1.05-6.632,2.747S133.584,158.168,133.584,160.758z"/>
		<path id="XMLID_495_" style="fill:#FBB47A;" d="M328.768,160.758c0,6.475,2.625,12.338,6.868,16.581s10.106,6.868,16.581,6.868
			s12.338-2.625,16.581-6.868s6.868-10.106,6.868-16.581c0-6.475-2.625-12.338-6.868-16.581c-4.243-4.243-10.106-6.868-16.581-6.868
			s-12.338,2.625-16.581,6.868C331.393,148.421,328.768,154.283,328.768,160.758z"/>
		<path id="XMLID_494_" style="fill:#E09D6E;" d="M342.838,160.758c0,2.59,1.05,4.935,2.747,6.632s4.042,2.747,6.632,2.747
			s4.935-1.05,6.632-2.747s2.747-4.042,2.747-6.632c0-2.59-1.05-4.935-2.747-6.632s-4.042-2.747-6.632-2.747
			s-4.935,1.05-6.632,2.747S342.838,158.168,342.838,160.758z"/>
		<path id="XMLID_493_" style="fill:#E09D6E;" d="M311.19,39.406c11.328,0,21.583,4.591,29.006,12.015s12.015,17.679,12.015,29.006
			v53.418v53.418c0,1.407-0.032,2.807-0.097,4.198c-0.065,1.391-0.164,2.775-0.298,4.151c-2.103,22.295-12.535,42.158-28.149,56.448
			c-15.614,14.29-36.411,23.006-59.243,23.006h-16.832h-16.832c-22.84,0-43.637-8.716-59.249-23.006
			c-15.612-14.29-26.04-34.154-28.143-56.448c-0.134-1.376-0.233-2.759-0.298-4.151c-0.065-1.391-0.097-2.791-0.097-4.198v-53.418
			V80.428c0-11.328,4.591-21.583,12.015-29.006s17.679-12.015,29.006-12.015h63.598H311.19z"/>
		<path id="XMLID_491_" style="fill:#FBB47A;" d="M311.194,39.409c11.328,0,21.583,4.591,29.007,12.015
			c7.423,7.423,12.015,17.679,12.015,29.006v53.416v53.416c0,24.252-9.827,46.205-25.714,62.095
			c-15.888,15.89-37.836,25.716-62.08,25.716h-5.1h-5.1c-24.248,0-46.201-9.829-62.092-25.719s-25.719-37.844-25.719-62.092v-53.416
			V80.43c0-11.328,4.591-21.583,12.015-29.006s17.679-12.015,29.006-12.015h51.881H311.194z"/>
		<path id="XMLID_490_" style="fill:#E29F6E;" d="M258.183,192.559h-9.713h-9.713c-2.306,0-4.394-0.935-5.905-2.446
			c-1.511-1.511-2.446-3.599-2.446-5.905v0l0,0c0-2.306,0.935-4.394,2.446-5.905c1.511-1.511,3.599-2.446,5.905-2.446h9.713h9.713
			c2.306,0,4.394,0.935,5.905,2.446c1.511,1.511,2.446,3.599,2.446,5.905l0,0v0c0,2.306-0.935,4.394-2.446,5.905
			C262.577,191.624,260.489,192.559,258.183,192.559z"/>
		<path id="XMLID_489_" style="fill:#1F3D5C;" d="M196.406,184.208h-0.697h-0.697c-3.288,0-6.265-1.333-8.42-3.487
			s-3.487-5.131-3.487-8.42v-8.465v-8.465c0-3.288,1.333-6.265,3.487-8.42s5.131-3.487,8.42-3.487h0.697h0.697
			c3.288,0,6.265,1.333,8.42,3.487s3.487,5.131,3.487,8.42v8.465v8.465c0,3.288-1.333,6.265-3.487,8.42
			S199.694,184.208,196.406,184.208z"/>
		<path id="XMLID_488_" style="fill:#FFFFFF;" d="M194.244,155.482c0,1.619,0.656,3.084,1.717,4.145
			c1.061,1.061,2.526,1.717,4.145,1.717s3.084-0.656,4.145-1.717c1.061-1.061,1.717-2.526,1.717-4.145s-0.656-3.084-1.717-4.145
			c-1.061-1.061-2.526-1.717-4.145-1.717s-3.084,0.656-4.145,1.717C194.9,152.398,194.244,153.864,194.244,155.482z"/>
		<path id="XMLID_487_" style="fill:none;stroke:#1F3D5C;stroke-width:8;stroke-linecap:round;stroke-miterlimit:10;" d="
			M318.258,154.768c0,0,1.976-0.354,4.253-1.581c2.278-1.227,4.857-3.328,6.065-6.822"/>
		<path id="XMLID_486_" style="fill:none;stroke:#1F3D5C;stroke-width:8;stroke-linecap:round;stroke-miterlimit:10;" d="
			M185.503,154.768c0,0-1.976-0.354-4.253-1.581c-2.278-1.227-4.857-3.328-6.065-6.822"/>
		<path id="XMLID_484_" style="fill:#1F3D5C;" d="M307.497,184.208H306.8h-0.697c-3.288,0-6.265-1.333-8.42-3.487
			c-2.155-2.155-3.487-5.131-3.487-8.42v-8.465v-8.465c0-3.288,1.333-6.265,3.487-8.42c2.155-2.155,5.132-3.487,8.42-3.487h0.697
			h0.697c3.288,0,6.265,1.333,8.419,3.487c2.155,2.155,3.487,5.131,3.487,8.42v8.465v8.465c0,3.288-1.333,6.265-3.487,8.42
			C313.762,182.875,310.785,184.208,307.497,184.208z"/>
		<path id="XMLID_483_" style="fill:#FFFFFF;" d="M305.334,155.482c0,1.619,0.656,3.084,1.717,4.145
			c1.061,1.061,2.526,1.717,4.145,1.717c1.619,0,3.084-0.656,4.145-1.717c1.061-1.061,1.717-2.526,1.717-4.145
			s-0.656-3.084-1.717-4.145c-1.061-1.061-2.526-1.717-4.145-1.717c-1.619,0-3.084,0.656-4.145,1.717
			C305.99,152.398,305.334,153.864,305.334,155.482z"/>
		<path id="XMLID_482_" style="fill:#088E5D;" d="M352.212,83.005v6.543v6.543H247.584H142.957v-6.543v-6.543
			c0-16.982,6.883-32.357,18.012-43.485c11.129-11.129,26.503-18.012,43.485-18.012h43.129h43.129
			c16.982,0,32.357,6.883,43.485,18.012S352.212,66.023,352.212,83.005z"/>
		<polygon id="XMLID_481_" style="fill:#D5D3D2;" points="352.212,96.092 352.212,114.276 352.212,132.459 247.584,132.459 
			142.957,132.459 142.957,114.276 142.957,96.092 247.584,96.092 		"/>
		<path id="XMLID_479_" style="fill:#0FA46E;" d="M352.212,83.005v6.543v6.543h-92.903h-92.903v-6.543v-6.543
			c0-16.982,6.883-32.357,18.012-43.485c11.129-11.129,26.503-18.012,43.485-18.012h31.405h31.405
			c16.982,0,32.357,6.883,43.485,18.012S352.212,66.023,352.212,83.005z"/>
		<polygon id="XMLID_478_" style="fill:#FFFFFF;" points="352.212,96.092 352.212,114.276 352.212,132.459 259.309,132.459 
			166.406,132.459 166.406,114.276 166.406,96.092 259.309,96.092 		"/>
		<path id="XMLID_474_" style="fill:#0FA46E;" d="M351.816,195.612c-2.103,22.295-12.535,42.158-28.149,56.448
			c-15.614,14.29-36.411,23.006-59.243,23.006h-16.832h-16.832c-22.84,0-43.637-8.716-59.249-23.006
			c-15.612-14.29-26.04-34.154-28.143-56.448h104.224H351.816z"/>
		<path id="XMLID_473_" style="fill:#0FBF79;" d="M351.816,195.612c-2.103,22.295-12.535,42.158-28.149,56.448
			c-15.614,14.29-36.411,23.006-59.243,23.006h-5.313h-5.313c-22.84,0-43.637-8.716-59.249-23.006
			c-15.612-14.29-26.04-34.154-28.143-56.448h92.705H351.816z"/>
		<path id="XMLID_470_" style="fill:#D5D3D2;" d="M206.625,113.56c0,11.555,4.684,22.016,12.256,29.589s18.034,12.256,29.589,12.256
			s22.016-4.684,29.589-12.256s12.256-18.034,12.256-29.589s-4.684-22.016-12.256-29.589c-7.572-7.572-18.034-12.256-29.589-12.256
			s-22.016,4.684-29.589,12.256C211.309,91.544,206.625,102.005,206.625,113.56z"/>
		<path id="XMLID_469_" style="fill:#E0BD50;" d="M280.029,113.56c0,7.14-2.374,13.729-6.376,19.018
			c-4.003,5.289-9.634,9.277-16.149,11.214c-1.429,0.434-2.9,0.765-4.407,0.987c-1.507,0.222-3.05,0.336-4.622,0.336
			c-8.717,0-16.606-3.533-22.315-9.244c-5.709-5.711-9.24-13.6-9.24-22.311c0-8.712,3.53-16.6,9.24-22.311
			c5.709-5.711,13.598-9.244,22.315-9.244c1.572,0,3.115,0.114,4.622,0.336c1.507,0.222,2.978,0.553,4.407,0.987
			c6.515,1.937,12.147,5.925,16.149,11.214C277.655,99.831,280.029,106.42,280.029,113.56z"/>
		<path id="XMLID_468_" style="fill:#FCDB59;" d="M280.029,113.56c0,7.14-2.374,13.729-6.376,19.018
			c-4.003,5.289-9.634,9.277-16.149,11.214c-6.515-1.937-12.147-5.925-16.149-11.214c-4.003-5.289-6.376-11.878-6.376-19.018
			c0-7.14,2.374-13.729,6.376-19.018c4.003-5.289,9.634-9.277,16.149-11.214c6.515,1.937,12.147,5.925,16.149,11.214
			C277.655,99.831,280.029,106.42,280.029,113.56z"/>
		<path id="XMLID_467_" style="fill:#088E5D;" d="M248.106,427.944h-0.513h-0.513c-2.422,0-4.614-0.982-6.201-2.569
			c-1.587-1.587-2.569-3.779-2.569-6.201v-49.982V319.21h9.283h9.283v49.982v49.982c0,2.422-0.982,4.614-2.569,6.201
			C252.72,426.963,250.527,427.944,248.106,427.944z"/>
		<path id="XMLID_463_" style="fill:#0FA46E;" d="M440.78,341.784l-11.52,56.28l-11.52,56.28
			c-8.215,6.705-16.853,12.908-25.867,18.563c-9.015,5.655-18.408,10.763-28.133,15.278c-3.365,1.57-6.77,3.065-10.212,4.484
			c-3.442,1.419-6.922,2.761-10.437,4.026l10.1-49.35l10.1-49.35l7.08-34.585l7.08-34.585l1.87,0.385l1.87,0.385l7.86,1.605
			l7.86,1.605l4.095,0.84l4.095,0.84l13.355,2.73l13.355,2.73l0.005,0.005l0.005,0.005l4.48,0.915L440.78,341.784z"/>
		<path id="XMLID_461_" style="fill:#088E5D;" d="M443.077,342.254l-33.962-6.951l-33.962-6.951
			c-1.379-0.282-2.513-1.097-3.231-2.185c-0.719-1.089-1.022-2.451-0.74-3.83l0.299-1.462l0.299-1.462
			c0.282-1.379,1.097-2.513,2.185-3.231c1.089-0.719,2.451-1.022,3.83-0.74l33.962,6.951l33.962,6.951
			c1.379,0.282,2.513,1.097,3.231,2.185c0.719,1.089,1.022,2.451,0.74,3.83l-0.299,1.462l-0.299,1.462
			c-0.282,1.379-1.097,2.513-2.185,3.231C445.818,342.233,444.455,342.536,443.077,342.254z"/>
		<g id="XMLID_448_">
			<polyline id="XMLID_460_" style="fill:none;stroke:#F6FAFF;stroke-width:8;stroke-linecap:round;stroke-miterlimit:10;" points="
				424.845,145.65 427.561,119.149 430.277,92.648 			"/>
			<path id="XMLID_459_" style="fill:#96B4D4;" d="M439.052,155.86l-4.21,41.078l-4.21,41.078l-15.095-1.547l-15.095-1.547
				l4.21-41.078l4.21-41.078c0.146-1.422,0.854-2.65,1.883-3.486c1.029-0.836,2.378-1.281,3.805-1.134l9.935,1.018l9.935,1.018
				c1.427,0.146,2.658,0.855,3.495,1.883S439.198,154.439,439.052,155.86z"/>
			<polygon id="XMLID_458_" style="fill:#A3C2EC;" points="407.813,235.678 419.223,236.847 430.632,238.016 432.869,216.187 
				435.106,194.358 423.697,193.189 412.288,192.02 410.05,213.849 			"/>
			<path id="XMLID_455_" style="fill:#CC3A4C;" d="M421.921,148.901l-3.686-0.378l-3.686-0.378
				c-1.427-0.146-2.776,0.298-3.805,1.134c-1.029,0.836-1.737,2.065-1.883,3.486l-1.973,19.249l-1.973,19.249l3.686,0.378
				l3.686,0.378l1.973-19.249l1.973-19.249c0.146-1.422,0.857-2.65,1.887-3.486C419.15,149.2,420.499,148.755,421.921,148.901z"/>
			<path id="XMLID_454_" style="fill:#FB4755;" d="M434.42,150.182l-6.25-0.641l-6.25-0.641c-1.422-0.146-2.771,0.299-3.801,1.135
				c-1.03,0.836-1.741,2.064-1.887,3.486l-1.973,19.249l-1.973,19.249l11.409,1.169l11.409,1.169l1.973-19.249l1.973-19.249
				c0.146-1.422-0.299-2.768-1.137-3.796S435.847,150.328,434.42,150.182z"/>
			<path id="XMLID_453_" style="fill:#5EA1E0;" d="M431.858,149.916l-7.373-0.756l-7.373-0.756l0.197-1.924l0.197-1.924
				c0.09-0.876,0.526-1.633,1.159-2.148c0.633-0.515,1.462-0.789,2.338-0.699l4.201,0.431l4.201,0.431
				c0.876,0.09,1.633,0.526,2.148,1.159s0.789,1.462,0.699,2.338l-0.197,1.924L431.858,149.916z"/>
			<polygon id="XMLID_451_" style="fill:#5EA1E0;" points="434.256,202.656 419.161,201.109 404.066,199.562 404.491,195.416 
				404.916,191.27 420.011,192.817 435.106,194.364 434.681,198.51 			"/>
			<polygon id="XMLID_450_" style="fill:#96B4D4;" points="418.523,243.67 414.377,243.245 410.231,242.82 412.392,221.728 
				414.554,200.637 418.7,201.062 422.847,201.487 420.685,222.578 			"/>
			<path id="XMLID_449_" style="fill:#1F3D5C;" d="M430.096,244.856l-15.258-1.564l-15.258-1.564
				c-1.087-0.111-2.027-0.653-2.666-1.439c-0.64-0.786-0.979-1.815-0.868-2.903l0.024-0.23l0.024-0.23
				c0.111-1.087,0.653-2.027,1.439-2.666s1.815-0.979,2.903-0.868l15.258,1.564l15.258,1.564c1.087,0.111,2.027,0.653,2.666,1.439
				s0.979,1.815,0.868,2.903l-0.024,0.23l-0.024,0.23c-0.111,1.087-0.653,2.027-1.439,2.666
				C432.213,244.627,431.183,244.967,430.096,244.856z"/>
		</g>
		<polygon id="XMLID_447_" style="fill:#96B4D4;" points="404.658,337.885 400.525,337.346 396.392,336.807 398.817,318.218 
			401.242,299.629 405.375,300.168 409.508,300.707 407.083,319.296 		"/>
		<path id="XMLID_446_" style="fill:#1F3D5C;" d="M415.109,347.7l-15.209-1.984l-15.209-1.984c-1.084-0.141-2.008-0.709-2.625-1.512
			c-0.618-0.803-0.929-1.842-0.788-2.925l0.03-0.23l0.03-0.23c0.141-1.084,0.709-2.008,1.512-2.625
			c0.803-0.618,1.842-0.929,2.925-0.788l15.209,1.984l15.209,1.984c1.084,0.141,2.008,0.709,2.625,1.512
			c0.618,0.803,0.929,1.842,0.788,2.925l-0.03,0.23l-0.03,0.23c-0.141,1.084-0.709,2.008-1.512,2.625
			C417.231,347.53,416.193,347.841,415.109,347.7z"/>
		<path id="XMLID_445_" style="fill:#FFFFFF;" d="M436.527,307.289l-21.886-2.243l-21.886-2.243
			c-6.265-0.642-11.677-3.763-15.362-8.289s-5.643-10.459-5.001-16.724l0.838-8.173l0.838-8.173
			c0.642-6.265,3.763-11.677,8.289-15.362c4.527-3.685,10.459-5.643,16.724-5.001l21.886,2.243l21.886,2.243
			c2.632,0.27,4.905,1.58,6.452,3.482s2.37,4.393,2.101,7.024l-2.186,21.331l-2.186,21.331c-0.27,2.631-1.58,4.905-3.482,6.452
			C441.65,306.736,439.158,307.558,436.527,307.289z"/>
	</g>
</g>
</svg>
